<?xml version="1.0" encoding="UTF-8"?>
<!-- Generated by Pixelmator Pro 3.6.10 -->
<svg width="1144" height="213" viewBox="0 0 1144 213" xmlns="http://www.w3.org/2000/svg">
    <path id="ESPORO" fill="#000000" fill-rule="evenodd" stroke="#000000" stroke-width="3" stroke-linecap="round" stroke-linejoin="round" d="M 1040.135986 208.092041 C 1094.280029 208.092041 1139.496094 166.619995 1139.496094 106.427979 C 1139.496094 41.339966 1097.160156 5.052002 1040.135986 5.052002 C 981.959961 5.052002 940.488037 47.676025 940.488037 107.291992 C 940.488037 167.196045 980.52002 208.092041 1040.135986 208.092041 Z M 1040.135986 159.995972 C 1011.047852 159.995972 992.040039 140.411987 992.040039 107.291992 C 992.040039 72.156006 1011.335938 53.147949 1040.135986 53.147949 C 1067.78418 53.147949 1088.231934 71.291992 1088.231934 106.427979 C 1088.231934 140.411987 1067.78418 159.995972 1040.135986 159.995972 Z M 885.191895 203.196045 C 889.511963 205.787964 894.696045 206.939941 898.728027 206.939941 C 914.280029 206.939941 923.208008 193.115967 923.208008 181.307983 C 923.208008 172.092041 918.600098 165.468018 911.399902 161.147949 L 886.63208 145.884033 C 909.671875 134.07605 930.407959 115.355957 930.407959 77.339966 C 930.407959 32.411987 897 5.052002 852.936035 5.052002 C 819.528076 5.052002 796.775879 17.147949 782.952148 39.900024 C 775.751953 51.708008 771.432129 68.124023 771.432129 89.147949 L 771.432129 182.748047 C 771.432129 195.995972 780.936035 206.939941 796.775879 206.939941 C 812.615967 206.939941 821.255859 196.572021 821.255859 182.748047 L 821.255859 161.436035 Z M 821.255859 108.156006 L 821.255859 89.147949 C 821.543945 66.972046 829.60791 54.011963 850.919922 54.011963 C 868.488037 54.011963 878.855957 64.956055 878.855957 81.947998 C 878.855957 107.579956 855.528076 117.371948 840.552002 118.524048 Z M 654.791992 208.092041 C 708.936035 208.092041 754.151978 166.619995 754.151978 106.427979 C 754.151978 41.339966 711.815918 5.052002 654.791992 5.052002 C 596.615967 5.052002 555.144043 47.676025 555.144043 107.291992 C 555.144043 167.196045 595.176025 208.092041 654.791992 208.092041 Z M 654.791992 159.995972 C 625.703979 159.995972 606.696045 140.411987 606.696045 107.291992 C 606.696045 72.156006 625.991943 53.147949 654.791992 53.147949 C 682.439941 53.147949 702.887939 71.291992 702.887939 106.427979 C 702.887939 140.411987 682.439941 159.995972 654.791992 159.995972 Z M 425.255981 153.371948 C 434.471924 161.723999 448.296021 168.635986 469.320068 168.635986 C 510.791992 168.635986 543.624023 137.531982 543.624023 87.708008 C 543.624023 40.764038 511.368042 5.052002 460.391968 5.052002 C 409.416016 5.052002 375.432007 37.307983 375.432007 89.436035 L 375.432007 183.323975 C 375.432007 197.436035 384.647949 206.939941 400.488037 206.939941 C 416.615967 206.939941 425.255981 195.995972 425.255981 182.748047 Z M 459.81604 122.268066 C 440.807983 122.268066 426.119995 109.595947 426.119995 88.572021 C 426.119995 66.972046 439.368042 53.723999 459.23999 53.723999 C 477.959961 53.723999 492.359985 66.972046 492.359985 87.708008 C 492.359985 106.427979 479.687988 122.268066 459.81604 122.268066 Z M 357.287964 142.716064 C 357.287964 66.972046 260.231934 91.73999 260.231934 62.651978 C 260.231934 55.73999 266.280029 51.131958 276.936035 51.131958 C 289.031982 51.131958 297.384033 55.452026 310.343994 63.515991 C 318.407959 68.411987 322.151978 70.716064 331.079956 70.716064 C 343.751953 70.716064 353.832031 60.635986 353.832031 47.963989 C 353.832031 42.491943 351.23999 37.595947 348.936035 34.427979 C 338.567993 20.604004 314.664063 5.052002 279.527954 5.052002 C 241.223999 5.052002 206.088013 24.635986 206.088013 67.547974 C 206.088013 141.852051 302.855957 114.491943 302.855957 147.036011 C 302.855957 156.251953 295.94397 161.436035 280.104004 161.436035 C 263.687988 161.436035 253.031982 155.099976 243.527954 147.900024 C 236.328003 142.427979 232.008057 137.820068 223.656006 137.820068 C 210.407959 137.820068 198.024048 150.491943 198.024048 163.164063 C 198.024048 169.787964 200.615967 174.972046 204.359985 179.579956 C 215.303955 192.251953 241.511963 208.092041 279.23999 208.092041 C 321.864014 208.092041 357.287964 188.219971 357.287964 142.716064 Z M 191.708496 81.58667 C 194.203125 97.33728 186.409668 105.989868 173.639038 108.012573 L 56.573853 126.553833 C 61.445435 146.291748 78.350098 167.614624 110.702759 162.490356 C 123.047729 160.535156 134.853394 155.174316 143.388306 151.204346 C 148.65271 148.625122 152.639893 146.248047 157.748291 145.438965 C 168.816162 143.686035 177.110596 151.972412 178.998413 163.891846 C 180.279419 171.97998 177.750488 178.053345 171.255371 183.88208 C 159.83313 194.418579 138.796997 202.114136 117.512451 205.485229 C 58.341309 214.857056 15.731079 182.768921 5.887329 120.61792 C -3.416992 61.872437 29.139282 13.951782 87.884644 4.647461 C 146.204468 -4.589478 183.819946 31.78064 191.708496 81.58667 Z M 80.908546 48.753677 C 63.476303 56.176178 50.985546 73.197556 51.786743 96.329712 L 90.390633 90.215469 C 80.09481 87.513367 72.5 78.143616 72.5 67 C 72.5 59.696838 75.762024 53.155563 80.908546 48.753677 Z M 105.296638 44.663315 C 126.028267 45.967529 141.466583 59.737106 146.715942 81.294434 L 109.477036 87.192482 C 116.108406 82.921906 120.5 75.473801 120.5 67 C 120.5 56.850418 114.199707 48.172348 105.296638 44.663315 Z"/>
</svg>
